<?xml version="1.0" encoding="UTF-8"?><svg id="Layer_1" xmlns="http://www.w3.org/2000/svg" viewBox="0 0 511.99 511.99"><defs><style>.cls-1{fill:#99f;}.cls-2{fill:#00005b;}</style></defs><g id="After_Effects"><path id="_Прямоугольник_3" class="cls-2" d="M79.97,0h352.05c44.13,0,79.97,35.84,79.97,79.97v352.05c0,44.13-35.84,79.97-79.97,79.97H79.97c-44.13,0-79.97-35.84-79.97-79.97V79.97C0,35.84,35.84,0,79.97,0Z"/><path id="_Контур_4" class="cls-1" d="M210.23,312.52h-78.13l-15.87,51.61c-.41,1.84-2.15,3.17-4.1,3.07h-39.63c-2.25,0-3.07-1.23-2.36-3.69l67.69-192.1c.72-2.05,1.33-4.3,2.05-6.96.92-4.51,1.33-9.11,1.33-13.72-.2-1.13.61-2.25,1.74-2.36h54.37c1.54,0,2.46.61,2.66,1.74l76.8,213.81c.72,2.25,0,3.38-2.05,3.38h-43.83c-1.54.2-2.97-.82-3.38-2.36l-17.29-52.42ZM144.28,276.58h53.45c-1.33-4.51-2.97-13.72-4.71-19.35s-3.69-11.67-5.73-18.12-4.1-12.9-6.04-19.25c-1.95-6.35-3.89-12.6-5.63-18.64-1.74-5.94-3.17-11.47-4.61-16.38h-.31c-1.95,9.11-4.3,18.12-7.07,27.03-3.17,10.14-6.35,20.48-9.63,31.13-3.37,10.54-6.54,24.57-9.72,33.58Z"/><path id="_Контур_5" class="cls-1" d="M400.9,294.09h-66.56c.92,6.86,3.28,13.41,6.86,19.35,3.79,5.63,9.11,10.04,15.36,12.7,8.6,3.89,18.02,5.84,27.44,5.84,6.35.2,12.7-.31,18.94-1.43,6.76-1.23,13.41-3.17,19.76-5.94,1.13-.92,1.64-.31,1.74,1.64v32.15c.1.92-.1,1.74-.51,2.56-.41.61-.92,1.13-1.54,1.54-6.96,3.28-14.44,5.73-22.02,7.27-9.11,1.33-18.23,1.64-27.44,1.13-13.82.41-27.55-2.15-40.24-7.48-10.24-4.51-19.25-11.37-26.42-19.97-6.66-8.09-11.57-17.51-14.54-27.55-2.97-9.93-4.4-20.28-4.4-30.62,0-11.26,1.74-22.53,5.22-33.28,3.38-10.44,8.7-20.28,15.77-28.77,6.96-8.4,15.56-15.26,25.4-19.97,11.06-5.12,23.04-7.58,35.23-7.27,11.78-.2,23.55,2.15,34.41,6.76,8.7,3.89,16.28,9.93,22.12,17.41,5.53,7.17,9.73,15.26,12.49,23.86,2.66,8.29,3.99,17,4.1,25.7,0,4.92-.2,9.52-.51,13.52-.31,2.46-.72,4.81-1.33,7.17-.2,1.54-1.54,2.66-3.07,2.66-1.33,0-3.69.2-6.96.51s-9.11.2-13.93.31c-4.83.2-9.95.2-15.37.2ZM334.13,267.26h44.34c5.43,0,9.42-.1,11.98-.2,1.64,0,3.28-.2,4.92-.51v-2.05c.2-4.1,0-8.09-.72-12.08-3.79-11.88-14.95-19.76-27.44-19.25-11.67-.72-22.63,5.53-27.96,15.87-2.46,5.83-4.2,11.98-5.12,18.22Z"/></g></svg>