<?xml version="1.0" encoding="UTF-8"?><svg id="Capa_1" xmlns="http://www.w3.org/2000/svg" viewBox="0 0 512.5 499.66"><defs><style>.cls-1{fill:#99e83f;}.cls-2{fill:#1e3101;}</style></defs><path class="cls-2" d="M90.75,0h331c50.12,0,90.75,40.63,90.75,90.75v318.16c0,50.12-40.63,90.75-90.75,90.75H90.75c-50.12,0-90.75-40.63-90.75-90.75V90.75C0,40.63,40.63,0,90.75,0Z"/><path class="cls-1" d="M110.85,350.39v-219.68c0-1.6.68-2.4,2.06-2.4,3.66,0,8.01-.06,13.06-.17,5.05-.11,10.49-.23,16.33-.35l18.57-.34c6.53-.12,13.01-.18,19.42-.18,17.42,0,32.09,2.18,44,6.54,10.76,3.63,20.57,9.62,28.71,17.53,6.9,6.85,12.24,15.12,15.64,24.24,3.22,8.87,4.85,18.24,4.82,27.67,0,18.34-4.24,33.47-12.72,45.38-8.54,11.97-20.53,21.05-34.38,26-15.43,5.55-31.73,8.29-48.13,8.08-5.05,0-8.6-.06-10.66-.18-2.06-.11-5.16-.17-9.28-.17v67.73c.21,1.49-.83,2.87-2.32,3.09-.26.04-.51.04-.77,0h-41.95c-1.6-.04-2.4-.95-2.4-2.79ZM158.29,169.56v71.17c2.97.23,5.72.35,8.25.34h11.34c8.32.12,16.61-1.04,24.58-3.44,6.81-2.02,12.9-5.96,17.54-11.34,4.47-5.27,6.7-12.6,6.7-22,.17-6.65-1.56-13.21-5-18.9-3.63-5.51-8.86-9.78-15-12.21-7.99-3.1-16.52-4.56-25.09-4.29-5.5,0-10.37.06-14.61.17-4.24.11-7.16.28-8.77.51h.06Z"/><path class="cls-1" d="M401,319.11v28.19c0,2.52-.92,4.01-2.75,4.47-4.51,1.41-9.1,2.56-13.75,3.44-5.45.97-10.97,1.43-16.5,1.37-14.9,0-26.59-3.9-35.06-11.69s-12.71-20.28-12.72-37.47v-85.26h-20.3c-1.83,0-2.75-1-2.75-3.09v-34.07c0-1.83,1-2.75,3.1-2.75h20.28c.23-3.89.51-8.42.86-13.58.35-5.15.8-10.31,1.38-15.47s1.08-9.34,1.54-12.54c.22-.68.56-1.32,1-1.89.45-.56,1.04-.98,1.72-1.21l40.95-5.12c.62-.18,1.29-.15,1.89.09.46.23.52.83.52,2-.46,5.27-.79,12.44-1,21.49-.21,9.05-.44,17.82-.69,26.29h32c1.38,0,2.07.92,2.07,2.75v34.73c.17,1.13-.59,2.2-1.72,2.4h-32.73v73.57c0,7.8,1.33,13.36,4,16.68,2.67,3.32,7.54,4.99,14.61,5,2.06,0,4-.05,5.85-.17s3.66-.29,5.5-.52c.62-.23,1.32-.17,1.89.17.62.55.93,1.37.81,2.19Z"/></svg>